<?xml version="1.0" standalone="no"?>
<!DOCTYPE svg PUBLIC "-//W3C//DTD SVG 1.1//EN" "http://www.w3.org/Graphics/SVG/1.1/DTD/svg11.dtd" >
<svg xmlns="http://www.w3.org/2000/svg">
<metadata>Generated by IcoMoon</metadata>
<defs>
<font id="icomoon" horiz-adv-x="1024">
<font-face units-per-em="1024" ascent="960" descent="-64" />
<missing-glyph horiz-adv-x="1024" />
<glyph unicode="&#x20;" horiz-adv-x="512" d="" />
<glyph unicode="&#xe900;" glyph-name="add-plus" d="M263.814 437.582h512M519.814 181.582v256M519.814 437.582v256M519.814 736.248c-23.564 0-42.667-19.103-42.667-42.667v-213.333h-213.333c-23.564 0-42.667-19.103-42.667-42.667s19.103-42.667 42.667-42.667h213.333v-213.333c0-23.564 19.103-42.667 42.667-42.667s42.667 19.103 42.667 42.667v213.333h213.333c23.564 0 42.667 19.103 42.667 42.667s-19.103 42.667-42.667 42.667h-213.333v213.333c0 23.564-19.103 42.667-42.667 42.667zM519.814 757.582c-35.094 0-64-28.906-64-64v-192h-192c-35.094 0-64-28.906-64-64s28.906-64 64-64h192v-192c0-35.094 28.906-64 64-64s64 28.906 64 64v192h192c35.094 0 64 28.906 64 64s-28.906 64-64 64h-192v192c0 35.094-28.906 64-64 64zM519.814 714.915c12.035 0 21.333-9.299 21.333-21.333v-213.333c0.001-11.782 9.552-21.332 21.333-21.333h213.333c12.035 0 21.333-9.299 21.333-21.333s-9.299-21.333-21.333-21.333h-213.333c-11.782-0.001-21.332-9.552-21.333-21.333v0-213.333c0-12.035-9.299-21.333-21.333-21.333s-21.333 9.299-21.333 21.333v213.333c-0.001 11.782-9.552 21.332-21.333 21.333h-213.333c-12.035 0-21.333 9.299-21.333 21.333s9.299 21.333 21.333 21.333h213.333c11.782 0.001 21.332 9.552 21.333 21.333v0 213.333c0 12.035 9.299 21.333 21.333 21.333z" />
<glyph unicode="&#xe901;" glyph-name="arrow-down-sm" d="M512 704c-23.564 0-42.667-19.103-42.667-42.667v0-323.667l-97.833 97.833c-7.721 7.719-18.386 12.494-30.167 12.494s-22.446-4.774-30.167-12.494v0c-7.719-7.721-12.494-18.386-12.494-30.167s4.774-22.446 12.494-30.167l170.667-170.667c7.72-7.722 18.385-12.498 30.166-12.5v0c11.781 0.002 22.447 4.778 30.167 12.5l170.667 170.667c7.719 7.721 12.494 18.386 12.494 30.167s-4.774 22.446-12.494 30.167v0c-7.721 7.719-18.386 12.494-30.167 12.494s-22.446-4.774-30.167-12.494l-97.833-97.833v323.667c0 23.564-19.103 42.667-42.667 42.667v0z" />
<glyph unicode="&#xe902;" glyph-name="arrow-left" d="M341.333 704c-11.781-0.002-22.447-4.778-30.167-12.5l-213.333-213.333c-7.722-7.72-12.498-18.385-12.5-30.166v0c0.002-11.781 4.778-22.447 12.5-30.167l213.333-213.333c7.721-7.719 18.386-12.494 30.167-12.494s22.446 4.774 30.167 12.494v0c7.719 7.721 12.494 18.386 12.494 30.167s-4.774 22.446-12.494 30.167l-140.5 140.5h665c23.564 0 42.667 19.103 42.667 42.667v0c0 23.564-19.103 42.667-42.667 42.667v0h-665l140.5 140.5c7.719 7.721 12.494 18.386 12.494 30.167s-4.774 22.446-12.494 30.167v0c-7.72 7.722-18.385 12.498-30.166 12.5v0z" />
<glyph unicode="&#xe903;" glyph-name="arrow-right" d="M652.5 691.5c-7.719-7.721-12.494-18.386-12.494-30.167s4.774-22.446 12.494-30.167l140.5-140.5h-665c-23.564 0-42.667-19.103-42.667-42.667v0c0-23.564 19.103-42.667 42.667-42.667v0h665l-140.5-140.5c-7.719-7.721-12.494-18.386-12.494-30.167s4.774-22.446 12.494-30.167v0c7.721-7.719 18.386-12.494 30.167-12.494s22.446 4.774 30.167 12.494l213.333 213.333c7.721 7.72 12.498 18.385 12.5 30.166v0c-0.002 11.781-4.778 22.447-12.5 30.167l-213.333 213.333c-7.721 7.719-18.386 12.494-30.167 12.494s-22.446-4.774-30.167-12.494v0z" />
<glyph unicode="&#xe904;" glyph-name="arrow-up-sm" d="M512 704c-11.781-0.002-22.447-4.778-30.167-12.5l-170.667-170.667c-7.719-7.721-12.494-18.386-12.494-30.167s4.774-22.446 12.494-30.167v0c7.721-7.719 18.386-12.494 30.167-12.494s22.446 4.774 30.167 12.494l97.833 97.833v-323.667c0-23.564 19.103-42.667 42.667-42.667v0c23.564 0 42.667 19.103 42.667 42.667v0 323.667l97.833-97.833c7.721-7.719 18.386-12.494 30.167-12.494s22.446 4.774 30.167 12.494v0c7.719 7.721 12.494 18.386 12.494 30.167s-4.774 22.446-12.494 30.167l-170.667 170.667c-7.72 7.722-18.385 12.498-30.166 12.5v0z" />
<glyph unicode="&#xe905;" glyph-name="checkbox-checked" d="M307.167 832c-47.787 0-77.352 2.366-109.083-13.5-24.515-12.258-44.326-32.068-56.583-56.583-15.866-31.731-13.5-61.297-13.5-109.083v-409.667c0-47.787-2.244-77.178 13.5-108.667 12.203-24.407 31.967-44.063 56.333-56.333 31.593-16.411 61.314-14.167 108.917-14.167h410.083c47.603 0 77.324-2.244 108.917 14.167 24.258 12.216 43.868 31.826 56.083 56.083 16.411 31.593 14.167 61.314 14.167 108.917v410.083c0 47.603 2.244 77.323-14.167 108.917-12.27 24.366-31.926 44.13-56.333 56.333 0.050-0.023-0.087 0.060-0.224 0.142l-0.194 0.108c-31.236 15.256-60.462 13.25-108.249 13.25zM307.167 746.667h409.667c47.731 0 65.272-2.007 70.75-4.667 7.769-3.972 14.265-10.446 18.167-18.25 0.248-0.466 0.387-0.711 0.528-0.955l-0.11 0.205c2.152-4.111 4.499-21.963 4.499-69.75v-410.083c0-47.787-2.347-65.639-4.5-69.75-0.032-0.039-0.17-0.284-0.307-0.531l-0.111-0.219c-3.956-7.911-10.505-14.461-18.417-18.417-0.466-0.248-0.711-0.387-0.955-0.528l0.205 0.11c-4.109-2.152-21.962-4.498-69.748-4.498h-410.083c-47.787 0-65.639 2.347-69.75 4.5-0.039 0.032-0.284 0.17-0.531 0.307l-0.219 0.111c-7.911 3.954-14.544 10.504-18.5 18.415-2.176 4.351-4.417 22.713-4.417 70.5v409.667c0 47.787 2.362 66.808 4.417 70.917 3.956 7.911 10.589 14.544 18.5 18.5 4.109 2.054 23.13 4.417 70.917 4.417zM710 608.75c-7.346 6.161-16.902 9.904-27.332 9.904-13.128 0-24.871-5.929-32.697-15.255l-0.054-0.066-183.417-220.167-95 95c-7.721 7.719-18.386 12.494-30.167 12.494s-22.446-4.774-30.167-12.494v0c-7.719-7.721-12.494-18.386-12.494-30.167s4.774-22.446 12.494-30.167l128-128c7.721-7.716 18.385-12.488 30.163-12.488 13.129 0 24.873 5.929 32.7 15.256l0.054 0.066 213.333 256c6.161 7.346 9.904 16.902 9.904 27.332 0 13.128-5.929 24.871-15.255 32.697l-0.066 0.054z" />
<glyph unicode="&#xe906;" glyph-name="checkbox-unchecked" d="M307.167 832c-47.787 0-77.352 2.366-109.083-13.5-24.515-12.258-44.326-32.068-56.583-56.583-15.866-31.731-13.5-61.297-13.5-109.083v-409.667c0-47.787-2.244-77.178 13.5-108.667 12.203-24.407 31.967-44.063 56.333-56.333 31.593-16.411 61.314-14.167 108.917-14.167h410.083c47.603 0 77.324-2.244 108.917 14.167 24.258 12.216 43.868 31.826 56.083 56.083 16.411 31.593 14.167 61.314 14.167 108.917v410.083c0 47.603 2.244 77.323-14.167 108.917-12.27 24.366-31.926 44.13-56.333 56.333 0.050-0.023-0.087 0.060-0.224 0.142l-0.194 0.108c-31.236 15.256-60.462 13.25-108.249 13.25zM307.167 746.667h409.667c47.731 0 65.272-2.007 70.75-4.667 7.769-3.972 14.265-10.446 18.167-18.25 0.248-0.466 0.387-0.711 0.528-0.955l-0.11 0.205c2.152-4.111 4.499-21.963 4.499-69.75v-410.083c0-47.787-2.347-65.639-4.5-69.75-0.032-0.039-0.17-0.284-0.307-0.531l-0.111-0.219c-3.956-7.911-10.505-14.461-18.417-18.417-0.466-0.248-0.711-0.387-0.955-0.528l0.205 0.11c-4.109-2.152-21.962-4.498-69.748-4.498h-410.083c-47.787 0-65.639 2.347-69.75 4.5-0.039 0.032-0.284 0.17-0.531 0.307l-0.219 0.111c-7.911 3.954-14.544 10.504-18.5 18.415-2.176 4.351-4.417 22.713-4.417 70.5v409.667c0 47.787 2.362 66.808 4.417 70.917 3.956 7.911 10.589 14.544 18.5 18.5 4.109 2.054 23.13 4.417 70.917 4.417z" />
<glyph unicode="&#xe907;" glyph-name="chevron-down" d="M213.333 618.667c-11.781-0.002-22.447-4.778-30.167-12.5v0c-7.719-7.721-12.494-18.386-12.494-30.167s4.774-22.446 12.494-30.167l298.667-298.667c7.721-7.718 18.387-12.492 30.167-12.492s22.445 4.774 30.167 12.492l298.666 298.666c7.719 7.721 12.494 18.386 12.494 30.167s-4.774 22.446-12.494 30.167v0c-7.721 7.719-18.386 12.494-30.167 12.494s-22.446-4.774-30.167-12.494l-268.5-268.5-268.5 268.5c-7.72 7.722-18.385 12.498-30.166 12.5v0z" />
<glyph unicode="&#xe908;" glyph-name="chevron-up" d="M481.833 606.167l-298.667-298.667c-7.719-7.721-12.494-18.386-12.494-30.167s4.774-22.446 12.494-30.167v0c7.721-7.719 18.386-12.494 30.167-12.494s22.446 4.774 30.167 12.494l268.5 268.5 268.5-268.5c7.721-7.719 18.386-12.494 30.167-12.494s22.446 4.774 30.167 12.494v0c7.719 7.721 12.494 18.386 12.494 30.167s-4.774 22.446-12.494 30.167l-298.667 298.667c-7.721 7.718-18.387 12.492-30.167 12.492s-22.445-4.774-30.167-12.492v0z" />
<glyph unicode="&#xe909;" glyph-name="heart" d="M281.917 806.917c-104.276-14.99-196.583-107.241-196.583-251.833 0-149.333 106.381-273.793 206.333-362.75s199.583-144.25 199.583-144.25c5.979-3.388 13.131-5.385 20.75-5.385s14.771 1.997 20.963 5.496l-0.213-0.111c0 0 99.631 55.293 199.583 144.25s206.333 213.417 206.333 362.75c0 144.593-92.307 236.844-196.583 251.833-83.185 11.958-171.702-23.11-230.083-96.583-58.381 73.474-146.898 108.541-230.083 96.583zM294.083 722.5c66.39 9.544 143.236-24.071 178.667-107.333 6.679-15.374 21.732-25.93 39.25-25.93s32.571 10.556 39.143 25.655l0.107 0.275c35.431 83.263 112.276 116.877 178.667 107.333s123.417-56.009 123.417-167.417c0-106.667-85.619-217.077-177.667-299-81.696-72.709-146.273-108.447-163.667-118.5-17.394 10.053-81.971 45.791-163.667 118.5-92.048 81.923-177.667 192.333-177.667 299 0 111.407 57.026 157.873 123.417 167.417z" />
<glyph unicode="&#xe90a;" glyph-name="hide-eye" d="M170.25 832c-11.781-0.002-22.447-4.778-30.167-12.5v0c-7.719-7.721-12.494-18.386-12.494-30.167s4.774-22.446 12.494-30.167l107.5-107.5c-47.191-32.157-93.855-66.282-124.833-96.917-0.056-0.056-0.111-0.11-0.165-0.165l-0.002-0.002c-20.267-20.267-37.485-38.954-46.583-66.25-9.518-28.554-9.518-51.696 0-80.25 9.085-27.256 26.489-46.083 46.833-66 0.029-0.029 0.054-0.055 0.083-0.085 79.585-79.095 218.458-192.25 388.667-192.25 69.148 0 132.325 20.853 189.333 48.583l121.833-121.833c7.721-7.719 18.386-12.494 30.167-12.494s22.446 4.774 30.167 12.494v0c7.719 7.721 12.494 18.386 12.494 30.167s-4.774 22.446-12.494 30.167l-682.667 682.669c-7.72 7.722-18.385 12.498-30.166 12.5v0zM511.583 746.667c-15.804 0-31.965-0.91-47.833-2.833-21.226-2.675-37.479-20.615-37.479-42.35 0-1.815 0.113-3.604 0.333-5.359l-0.021 0.209c2.642-21.26 20.598-37.551 42.359-37.551 1.782 0 3.539 0.109 5.265 0.322l-0.207-0.021c12.291 1.49 25.227 2.25 37.583 2.25 131.354 0 256.824-95.731 329.167-167.667 0.085-0.085 0.167-0.167 0.249-0.249l0.003-0.003c19.724-19.305 21.729-20.603 25.5-32.167 0.18-0.515 0.266-0.736 0.352-0.956l-0.101 0.289c-0.548 1.594-0.299-25.977-0.166-25.583-3.702-11.105-5.859-12.695-25.583-32-0.004 0.018-0.116-0.229-0.225-0.477l-0.107-0.273c-11.797-11.375-23.701-22.87-36.75-34-9.216-7.875-15.021-19.509-15.021-32.498 0-10.585 3.854-20.269 10.236-27.727l-0.049 0.058c7.873-9.187 19.49-14.972 32.457-14.972 10.604 0 20.304 3.868 27.767 10.27l-0.057-0.048c15.759 13.448 29.243 26.508 41.162 38.002-0.014-0.069 0.071 0.151 0.155 0.373l0.097 0.294 0.085 0.085c20.341 19.915 37.744 38.742 46.83 65.998 9.478 28.435 9.642 51.187-0.167 79.917-9.057 27.423-26.425 46.517-46.667 66.333-79.573 79.098-218.538 192.333-389.167 192.333zM307.833 591.417l95.417-95.417c-7.279-16.004-19.667-29.335-19.667-48 0-70.206 57.794-128 128-128 18.692 0 32.919 11.334 49.083 18.583l75.417-75.417c-39.995-16.1-81.402-28.083-124.5-28.083-130.871 0-256.408 95.731-328.75 167.667-0.086 0.088-0.168 0.17-0.25 0.251l-0.001 0.001c-19.724 19.305-21.965 20.895-25.667 32 0.131-0.393 0.131 26.81 0 26.417 3.681 11.042 6.299 13.054 25.833 32.583l0.083 0.085c0.055 0.055 0.028 0.028 0.083 0.085 31.71 31.343 76.794 66.495 124.917 97.25z" />
<glyph unicode="&#xe90b;" glyph-name="menu-alt" d="M469.333 704c-23.564 0-42.667-19.103-42.667-42.667v0c0-23.564 19.103-42.667 42.667-42.667v0h341.333c23.564 0 42.667 19.103 42.667 42.667v0c0 23.564-19.103 42.667-42.667 42.667v0zM213.333 490.667c-23.564 0-42.667-19.103-42.667-42.667v0c0-23.564 19.103-42.667 42.667-42.667v0h597.333c23.564 0 42.667 19.103 42.667 42.667v0c0 23.564-19.103 42.667-42.667 42.667v0zM469.333 277.333c-23.564 0-42.667-19.103-42.667-42.667v0c0-23.564 19.103-42.667 42.667-42.667v0h341.333c23.564 0 42.667 19.103 42.667 42.667v0c0 23.564-19.103 42.667-42.667 42.667v0z" />
<glyph unicode="&#xe90c;" glyph-name="phone" d="M208.667 874.667c-67.556 0-123.333-55.778-123.333-123.333 0-402.376 327.176-730 729.583-730 67.826 0 123.75 55.924 123.75 123.75v117.333c0 52.331-32.277 99.231-80.333 118.833 0.131-0.056 0.022 0-0.088 0.055l-0.245 0.112-112.667 44.75c0 0.013 0 0.028 0 0.043s0 0.030 0 0.045v-0.002c-43.444 17.25-93.236 9.63-129.333-20.667l-28.75-24.083c-17.565-14.491-41.852-13.448-57.667 2.583-0.085 0.085-0.167 0.167-0.249 0.249l-81.424 81.505c-16.093 16.527-17.233 40.379-2.833 57.833l24.089 28.744c30.105 35.869 38.507 85.899 20.417 129.833l-44.583 112.167c-0.167 0.355-0.222 0.464-0.278 0.573l0.112-0.24c-19.652 48.178-66.85 79.917-118.834 79.917zM208.667 789.333h117.333c17.963 0 32.934-10.117 39.75-26.75 0.010-0.024 0.073 0.024 0.083 0l44.667-112.333c0.143-0.468 0.2-0.634 0.258-0.799l-0.091 0.299c5.803-14.092 3.169-30.583-6.833-42.5-0.012 0-0.027 0-0.042 0s-0.029 0-0.044 0h0.002l-24.25-29c-0.085-0.084-0.166-0.165-0.247-0.247l-0.003-0.003c-41.852-50.73-37.898-125.722 8.083-172.333 0.153-0.239 0.208-0.321 0.263-0.403l-0.096 0.151 81.333-81.25c46.479-47.115 122.049-50.329 172.75-8.5 0.085 0.085 0.167 0.167 0.249 0.249l0.003 0.003 29 24.25c0 0.013 0 0.028 0 0.043s0 0.030 0 0.045v-0.002c11.689 9.81 28.417 12.457 43 6.667l112.333-44.752c16.753-6.866 27.165-22.133 27.165-39.75v-117.333c0-21.774-16.643-38.417-38.417-38.417-356.206 0-644.25 288.429-644.25 644.667 0 22.044 15.956 38 38 38z" />
<glyph unicode="&#xe90d;" glyph-name="radio-fill" d="M512 832c-211.625 0-384-172.375-384-384 0-211.251 172.31-384 384-384 211.315 0 384 172.685 384 384 0 211.69-172.749 384-384 384zM512 746.667c165.069 0 298.667-133.183 298.667-298.667 0-165.005-133.662-298.667-298.667-298.667-165.484 0-298.667 133.598-298.667 298.667 0 165.548 133.119 298.667 298.667 298.667zM512 618.667c-93.788 0-170.667-76.879-170.667-170.667 0-93.5 76.707-170.667 170.667-170.667 93.673 0 170.667 76.994 170.667 170.667 0 93.959-77.166 170.667-170.667 170.667zM512 533.333c47.3 0 85.333-37.639 85.333-85.333 0-47.127-38.206-85.333-85.333-85.333-47.694 0-85.333 38.034-85.333 85.333 0 47.865 37.468 85.333 85.333 85.333z" />
<glyph unicode="&#xe90e;" glyph-name="radio-unchecked" d="M512 832c-211.625 0-384-172.375-384-384 0-211.251 172.31-384 384-384 211.315 0 384 172.685 384 384 0 211.69-172.749 384-384 384zM512 746.667c165.069 0 298.667-133.183 298.667-298.667 0-165.005-133.662-298.667-298.667-298.667-165.484 0-298.667 133.598-298.667 298.667 0 165.548 133.119 298.667 298.667 298.667z" />
<glyph unicode="&#xe90f;" glyph-name="remove-minus" d="M256 490.667c-23.564 0-42.667-19.103-42.667-42.667v0c0-23.564 19.103-42.667 42.667-42.667v0h512c23.564 0 42.667 19.103 42.667 42.667v0c0 23.564-19.103 42.667-42.667 42.667v0z" />
<glyph unicode="&#xe910;" glyph-name="search" d="M426.667 874.667c-188.125 0-341.333-153.208-341.333-341.333 0-187.758 153.134-341.333 341.333-341.333 78.335 0 147.335 31.164 205.083 75.917l234.083-234.083c7.721-7.719 18.386-12.494 30.167-12.494s22.446 4.774 30.167 12.494v0c7.719 7.721 12.494 18.386 12.494 30.167s-4.774 22.446-12.494 30.167l-234.083 234.083c44.753 57.749 75.917 126.748 75.917 205.083 0 188.199-153.575 341.333-341.333 341.333zM426.667 789.333c141.628 0 256-113.959 256-256 0-141.555-114.445-256-256-256-142.041 0-256 114.372-256 256 0 142.115 113.885 256 256 256z" />
<glyph unicode="&#xe911;" glyph-name="shopping-cart" d="M128 874.667c-23.564 0-42.667-19.103-42.667-42.667v0c0-23.564 19.103-42.667 42.667-42.667v0h11.083c19.070 0 22.362-0.824 21.417-0.333-1.339 1.886 0.448-1.661 4.167-20.667l92.083-498.75c3.792-19.984 21.11-34.895 41.914-34.917h444.586c18.97 0 34.942-1.332 54.75 7.833 13.188 5.895 25.209 15.304 34.083 27.333 12.832 17.196 14.678 32.161 18.917 50.833v0.085l66.833 290v0.167c6.925 28.518 14.233 48.416 5.75 76.081-6.235 20.487-19.833 37.291-38.333 47.917-25.278 14.648-46.072 11.75-75.417 11.75h-554.417l-6.917 37.583c-0.062 0.418-0.091 0.588-0.121 0.758l0.038-0.258c-3.783 19.334-5.086 34.587-17.083 52.583-0.445 0.684-0.801 1.2-1.169 1.708l0.086-0.124c-8.485 11.571-20.206 21.68-34.167 28.25-0.497 0.248-1.266 0.584-2.046 0.898l-0.287 0.102c-19.006 7.603-34.187 6.5-54.667 6.5zM271.167 661.333h538.667c28.839 0 36.283-2.74 32-0.167-1.522 4.676-0.388-3.4-6.917-30.333 0.020 0.14-0.009 0-0.038-0.141l-0.047-0.275-67-290.583c0.083 0.18 0.055 0.125 0.027 0.071l-0.112-0.237c-4.267-18.773-6.731-22.474-4-18.833-0.009-0.008-0.092-0.116-0.174-0.225l-0.078-0.108c-0.367-0.5-0.090-0.179-0.252-0.252-0.668-0.267-1.053-0.435-1.434-0.609l0.267 0.109c3.94 1.864 0.374 0.251-18.826 0.251h-409.083zM341.333 192c-46.243 0-85.333-39.091-85.333-85.333 0-46.222 38.583-85.333 85.333-85.333 46.739 0 85.333 38.594 85.333 85.333 0 46.75-39.111 85.333-85.333 85.333zM768 192c-46.243 0-85.333-39.091-85.333-85.333 0-46.222 38.583-85.333 85.333-85.333 46.739 0 85.333 38.594 85.333 85.333 0 46.75-39.111 85.333-85.333 85.333z" />
<glyph unicode="&#xe912;" glyph-name="showed-eye" d="M512 746.667c-170.579 0-309.499-113.155-389.083-192.25-0.029-0.029-0.054-0.055-0.083-0.083-20.345-19.917-37.748-38.744-46.833-66-9.518-28.554-9.518-51.696 0-80.25 9.085-27.256 26.489-46.083 46.833-66 0.029-0.029 0.054-0.055 0.083-0.085 79.585-79.095 218.504-192.25 389.083-192.25 170.209 0 309.082 113.155 388.667 192.25l0.085 0.085c20.345 19.917 37.748 38.744 46.833 66 9.518 28.554 9.518 51.696 0 80.25-9.087 27.256-26.491 46.083-46.835 66-79.573 79.098-218.493 192.333-388.75 192.333zM512 661.333c130.871 0 256.408-95.731 328.75-167.667 0.085-0.085 0.167-0.167 0.249-0.249l0.003-0.003c19.724-19.305 21.882-20.895 25.583-32-0.132 0.393-0.132-26.81 0-26.417-3.702-11.105-5.859-12.695-25.583-32-0.085-0.085-0.167-0.167-0.249-0.249l-0.003-0.003c-72.342-71.933-197.879-167.663-328.75-167.663-131.354 0-256.824 95.731-329.167 167.667-0.086 0.088-0.168 0.17-0.25 0.251l-0.001 0.001c-19.724 19.305-21.965 20.895-25.667 32 0.131-0.393 0.131 26.81 0 26.417 3.702 11.105 5.942 12.695 25.667 32 0.082 0.082 0.164 0.164 0.245 0.247l0.005 0.005c72.342 71.933 197.813 167.663 329.167 167.663zM512 576c-70.167 0-128-57.833-128-128 0-69.947 57.577-128 128-128 70.206 0 128 57.794 128 128 0 70.423-58.053 128-128 128zM512 490.667c23.919 0 42.667-18.37 42.667-42.667 0-23.661-19.006-42.667-42.667-42.667-24.297 0-42.667 18.747-42.667 42.667 0 24.553 18.113 42.667 42.667 42.667z" />
<glyph unicode="&#xe913;" glyph-name="small-arrow-left" d="M469.333 661.333c-11.781-0.002-22.447-4.778-30.167-12.5l-170.667-170.667c-7.722-7.72-12.498-18.385-12.5-30.166v0c0.002-11.781 4.778-22.447 12.5-30.167l170.667-170.667c7.721-7.719 18.386-12.494 30.167-12.494s22.446 4.774 30.167 12.494v0c7.719 7.721 12.494 18.386 12.494 30.167s-4.774 22.446-12.494 30.167l-97.833 97.833h323.667c23.564 0 42.667 19.103 42.667 42.667v0c0 23.564-19.103 42.667-42.667 42.667v0h-323.667l97.833 97.833c7.719 7.721 12.494 18.386 12.494 30.167s-4.774 22.446-12.494 30.167v0c-7.72 7.722-18.385 12.498-30.166 12.5v0z" />
<glyph unicode="&#xe914;" glyph-name="small-arrow-right" d="M554.667 661.333c-11.781-0.002-22.447-4.778-30.167-12.5v0c-7.719-7.721-12.494-18.386-12.494-30.167s4.774-22.446 12.494-30.167l97.833-97.833h-323.667c-23.564 0-42.667-19.103-42.667-42.667v0c0-23.564 19.103-42.667 42.667-42.667v0h323.667l-97.833-97.833c-7.719-7.721-12.494-18.386-12.494-30.167s4.774-22.446 12.494-30.167v0c7.721-7.719 18.386-12.494 30.167-12.494s22.446 4.774 30.167 12.494l170.667 170.667c7.721 7.72 12.498 18.385 12.5 30.166v0c-0.002 11.781-4.779 22.446-12.5 30.167l-170.667 170.667c-7.72 7.722-18.385 12.498-30.166 12.5v0z" />
<glyph unicode="&#xe915;" glyph-name="star" d="M511.75 888c-22.983 0-47.314-13.917-58.083-37.25-0.013 0-0.028 0-0.043 0s-0.030 0-0.045 0h0.002l-102.998-223.583-244.25-28.833c-51.059-6.078-73.575-75.177-36.083-110.25 0.055-0.055 0.11-0.11 0.164-0.164l0.003-0.003 180.667-167.167-48-241.167c0.037 0.185 0.008 0.074-0.020-0.038l-0.063-0.295c-4.77-25.040 6.744-50.549 25.417-64s46.428-16.206 68.667-3.917c0.383 0.119 0.466 0.148 0.549 0.177l-0.299-0.092 214.417 120 214.917-120.417c-0.010-0.003 0.181-0.114 0.373-0.222l0.211-0.11c44.982-24.315 102.873 18.502 93.333 68.583-0.094 0.408-0.123 0.52-0.153 0.631l0.068-0.298-48 241.167 180.667 167.167c0.056 0.056 0.11 0.11 0.165 0.165l0.002 0.002c37.492 35.073 14.976 104.172-36.083 110.25l-244.248 28.831-103.083 223.583c-10.769 23.333-35.184 37.25-58.167 37.25zM511.75 773.083l88.667-192.333c0.298-0.681 0.493-1.092 0.695-1.499l-0.112 0.249c8.82-17.639 28.168-33.185 50.5-35.667l209.583-24.833-155.333-143.833c-0.426-0.382-0.806-0.735-1.179-1.095l0.013 0.012c-14.339-14.339-22.068-35.615-18.25-57.25 0.092-0.568 0.15-0.878 0.211-1.188l-0.045 0.271 41.333-207.75-184.75 103.583c-0.039 0.032-0.284 0.17-0.531 0.307l-0.219 0.111c-19.6 10.454-41.483 10.454-61.083 0-0.466-0.248-0.711-0.387-0.955-0.528l0.205 0.11-184.75-103.417 41.333 207.583c0.016 0.038 0.075 0.348 0.129 0.66l0.037 0.256c3.586 20.319-1.884 43.632-20.833 59.667l-153.916 142.5 209.583 24.833c22.16 2.462 42.337 16.913 51.417 37.667zM255.833 86c0.022 0.012 0.061-0.012 0.083 0l-0.25-0.166z" />
<glyph unicode="&#xe916;" glyph-name="tabler-point-filled" d="M510.976 755.2c60.416 1.024 119.808-17.408 169.984-50.176 50.176-33.792 89.088-80.896 112.64-136.192s30.72-115.712 20.48-175.104c-11.264-59.392-38.912-114.688-80.896-157.696-40.96-43.008-95.232-73.728-153.6-87.040s-119.808-9.216-176.128 12.288c-56.32 20.48-105.472 58.368-140.288 106.496-35.84 49.152-56.32 107.52-58.368 166.912v27.648c3.072 78.848 36.864 153.6 94.208 207.872 57.344 55.296 133.12 84.992 211.968 84.992z" />
<glyph unicode="&#xe917;" glyph-name="trash-full" d="M469.333 874.667c-40.107 0-64.386 1.526-91.583-9.5-0.028-0.028-0.055-0.055-0.082-0.082l-0.001-0.001c-31.541-12.874-56.543-37.876-69.417-69.417-0.028-0.028-0.055-0.055-0.082-0.082l-0.001-0.001c-5.889-14.527-4.204-33.207-5.083-48.917h-132.417c-23.564 0-42.667-19.103-42.667-42.667v0c0-23.564 19.103-42.667 42.667-42.667v0h42.667v-460.333c0-48.213-2.006-77.512 13.25-108.75 0.19-0.331 0.273-0.468 0.356-0.604l-0.106 0.186c12.203-24.407 31.967-44.063 56.333-56.333 31.593-16.409 61.314-14.165 108.917-14.165h239.417c47.603 0 77.324-2.244 108.917 14.167 24.258 12.216 43.868 31.826 56.083 56.083 16.411 31.593 14.167 61.314 14.167 108.917v460.833h42.667c23.564 0 42.667 19.103 42.667 42.667v0c0 23.564-19.103 42.667-42.667 42.667v0h-132.583c-1.030 15.768 0.422 34.716-5.333 48.917-0.020 0.020-0.048 0.047-0.076 0.074l-0.010 0.009c-12.872 31.541-37.874 56.543-69.415 69.417 0.187-0.084 0.132-0.056 0.077-0.029l-0.244 0.112c-27.198 11.026-51.404 9.5-91.084 9.5zM469.333 789.333h85.333c39.68 0 54.707-1.476 59.083-3.25 10.247-4.2 18.398-12.413 22.583-22.667 0.569-1.412 0.516-13.453 1-16.75h-251c0.428 3.251 0.417 15.51 0.917 16.75v0.083c4.192 10.228 12.356 18.391 22.583 22.583 4.376 1.774 19.393 3.25 59.5 3.25zM298.667 661.333h426.667v-460.833c0-47.787-2.347-65.639-4.5-69.75-0.032-0.039-0.17-0.284-0.307-0.531l-0.111-0.219c-3.956-7.911-10.505-14.461-18.417-18.417-0.466-0.248-0.711-0.387-0.955-0.528l0.205 0.11c-4.109-2.152-21.962-4.498-69.748-4.498h-239.417c-47.787 0-65.639 2.347-69.75 4.5-0.039 0.032-0.284 0.17-0.531 0.307l-0.219 0.111c-7.804 3.901-14.278 10.396-18.25 18.165-2.66 5.477-4.667 23.093-4.667 71.25zM426.667 576c-23.564 0-42.667-19.103-42.667-42.667v0-298.667c0-23.564 19.103-42.667 42.667-42.667v0c23.564 0 42.667 19.103 42.667 42.667v0 298.667c0 23.564-19.103 42.667-42.667 42.667v0zM597.333 576c-23.564 0-42.667-19.103-42.667-42.667v0-298.667c0-23.564 19.103-42.667 42.667-42.667v0c23.564 0 42.667 19.103 42.667 42.667v0 298.667c0 23.564-19.103 42.667-42.667 42.667v0z" />
<glyph unicode="&#xe918;" glyph-name="user" d="M512 874.667c-141.086 0-256-114.914-256-256 0-140.742 114.811-256 256-256 140.845 0 256 115.155 256 256 0 141.189-115.258 256-256 256zM512 789.333c94.778 0 170.667-75.482 170.667-170.667 0-94.675-75.992-170.667-170.667-170.667-95.185 0-170.667 75.889-170.667 170.667 0 95.287 75.379 170.667 170.667 170.667zM512 320c-101.469 0-193.95-25.098-264-68.833s-120-109.692-120-187.167c0-23.564 19.103-42.667 42.667-42.667v0c23.564 0 42.667 19.103 42.667 42.667v0c0 40.712 26.447 81.449 79.917 114.833s131.632 55.833 218.75 55.833c86.888 0 165.129-22.519 218.667-55.917s80-74.089 80-114.75c0-23.564 19.103-42.667 42.667-42.667v0c23.564 0 42.667 19.103 42.667 42.667v0c0 77.526-50.077 143.444-120.167 187.167s-162.562 68.833-263.833 68.833z" />
</font>
</defs>
</svg>
