<svg width="15" height="18" viewBox="0 0 15 18" fill="none" xmlns="http://www.w3.org/2000/svg">
<path d="M6.47995 0.0423565C5.65612 0.130247 4.65417 0.397434 3.86374 0.738451C3.3405 0.963449 3.15866 1.08298 2.99167 1.31501C2.6614 1.77556 2.75046 2.39079 3.21433 2.83025C3.51862 3.12204 3.75612 3.20994 4.17917 3.19236C4.43523 3.18181 4.51687 3.16072 4.77292 3.0447C5.78972 2.58064 6.56902 2.41189 7.47077 2.46814C8.24265 2.51384 8.79187 2.72829 9.24831 3.16072C9.66765 3.55447 9.85319 3.95525 9.85319 4.44743C9.85319 5.06618 9.59714 5.61462 8.99597 6.2615L8.74362 6.5322L5.16257 6.54626L1.58152 6.55681L1.36999 6.65173C0.553586 7.01384 0.360617 8.02986 0.995187 8.63454C1.37741 8.99314 1.41081 9.00017 3.58542 9.00017H5.40378L5.0364 9.32361L4.6653 9.65056L3.14382 9.66814L1.61862 9.68572L1.37741 9.7947C0.434836 10.2236 0.342062 11.4189 1.21042 11.9357C1.50359 12.1115 1.62976 12.1291 2.47214 12.1291H3.24402L3.21804 12.2416C3.05476 12.9834 3.02878 13.7322 3.15495 14.3299C3.47038 15.8697 4.51316 17.0756 6.02351 17.6486C7.14792 18.074 8.66198 18.1056 10.1723 17.7365C10.8551 17.5713 11.7866 17.2373 12.1428 17.0299C12.9704 16.5482 12.8331 15.3951 11.8979 14.9556C11.6604 14.8431 11.5973 14.8291 11.3487 14.8291C11.1001 14.8326 11.0184 14.8502 10.5768 15.0224C9.64909 15.3775 8.96628 15.5146 8.14987 15.5146C7.52273 15.5146 7.20359 15.4513 6.76569 15.251C5.76003 14.7904 5.35183 13.4193 5.88249 12.3154L5.97527 12.1291H9.63796C12.3544 12.1291 13.3378 12.1185 13.4528 12.0869C14.2358 11.8724 14.6143 11.0392 14.2395 10.3467C14.1133 10.1111 13.9055 9.92126 13.6235 9.7947L13.3823 9.68572L11.0852 9.66814L8.78816 9.65056L9.24089 9.32361L9.69734 9.00017H11.4637C13.438 9.00017 13.4899 8.99314 13.8313 8.76814C14.0428 8.63454 14.2507 8.37087 14.3323 8.13884C14.3954 7.95251 14.388 7.5447 14.3137 7.35134C14.2284 7.13337 14.0206 6.87673 13.8202 6.75368C13.527 6.57087 13.3526 6.53923 12.5993 6.53923H11.9202L12.0649 6.22634C12.6995 4.83767 12.551 3.31189 11.6567 2.04626C10.6176 0.5697 8.64714 -0.189674 6.47995 0.0423565ZM8.25378 0.822824C9.18894 0.984545 9.89401 1.32204 10.51 1.89861C11.679 2.99197 11.9981 4.574 11.3264 5.98376C11.2708 6.10681 11.1446 6.33181 11.0444 6.4865C10.9479 6.64118 10.8626 6.81345 10.8551 6.87322C10.8329 7.00329 10.9516 7.19665 11.0852 7.24236C11.1372 7.26345 11.6307 7.27751 12.2096 7.27751C13.219 7.27751 13.245 7.27751 13.3675 7.35837C13.7126 7.57634 13.6903 8.02283 13.3229 8.19861C13.2079 8.25486 13.0335 8.26189 11.3301 8.26189C9.97937 8.26189 9.44128 8.27244 9.38191 8.30408C9.33737 8.32517 9.19265 8.42712 9.05905 8.52556C8.92546 8.62751 8.46901 8.95095 8.04597 9.24626C7.55984 9.58376 7.25183 9.82283 7.21843 9.88962C7.13679 10.0338 7.17761 10.206 7.31862 10.315L7.43366 10.4064H10.2874C12.8257 10.4064 13.1559 10.4135 13.2895 10.4627C13.6458 10.5998 13.72 11.0111 13.4342 11.2713L13.3229 11.3732L9.47468 11.3908C6.23874 11.4049 5.6153 11.4154 5.54851 11.4576C5.38894 11.556 5.09577 12.115 4.97331 12.551C4.81003 13.1205 4.83972 13.7674 5.05866 14.3967C5.20339 14.822 5.41862 15.156 5.73776 15.4513C6.33894 16.0103 7.08112 16.2529 8.20554 16.2529C9.07019 16.2529 9.83835 16.1017 10.7104 15.7642C11.3673 15.5076 11.4637 15.5041 11.7124 15.7256C11.9091 15.9084 11.961 16.0877 11.8608 16.2599C11.7161 16.5201 10.343 16.9912 9.18894 17.1775C8.67312 17.2619 7.60066 17.2654 7.14792 17.1845C6.22761 17.0193 5.56706 16.6924 4.97331 16.1123C4.48718 15.6342 4.17917 15.1244 3.9862 14.4635C3.88972 14.1365 3.8823 14.0732 3.88601 13.4299C3.88601 12.7654 3.88972 12.7302 4.00847 12.3224C4.20144 11.665 4.19773 11.6017 3.9862 11.4681C3.89714 11.4154 3.75241 11.4049 2.78386 11.3908L1.678 11.3732L1.56667 11.2713C1.28093 11.0111 1.35515 10.5998 1.7114 10.4627C1.84128 10.4135 2.07136 10.4064 3.42585 10.4064H4.98816L5.36296 10.0619C5.79714 9.66111 6.09773 9.41501 6.52819 9.10915C6.96609 8.79626 7.03659 8.61697 6.81765 8.3779L6.72859 8.27947L4.22741 8.26189C1.91921 8.24431 1.71882 8.24079 1.62605 8.18103C1.30691 7.98415 1.31062 7.56228 1.63347 7.35837L1.75964 7.27751H5.35554C8.39109 7.27751 8.96628 7.27048 9.05163 7.22829C9.18894 7.1615 9.64167 6.70447 9.90515 6.37048C10.7475 5.2947 10.8663 4.14509 10.2428 3.13611C10.0759 2.86892 9.54148 2.36267 9.26315 2.2115C8.72878 1.92322 8.19069 1.77556 7.49304 1.72634C6.5653 1.66306 5.67839 1.83884 4.65046 2.28533C4.15691 2.49978 4.0196 2.51033 3.8155 2.35212C3.67448 2.24314 3.56687 2.05681 3.56687 1.9197C3.56687 1.75447 3.70046 1.63142 4.03816 1.47673C4.85827 1.10407 5.73034 0.868528 6.68405 0.759544C6.95495 0.727903 7.94206 0.77009 8.25378 0.822824Z" fill="#FF9A00"/>
</svg>
